<svg width="32" height="30" viewBox="0 0 32 30" fill="none" xmlns="http://www.w3.org/2000/svg">
<path fill-rule="evenodd" clip-rule="evenodd" d="M16.8416 0.517756C16.6821 0.20041 16.3563 0 16 0C15.6437 0 15.3179 0.20041 15.1584 0.517756L10.7256 9.33619L0.806976 10.7598C0.450921 10.8109 0.155254 11.0597 0.0451754 11.4008C-0.0649027 11.742 0.029865 12.1158 0.289349 12.3639L7.45752 19.2198L5.76642 28.9018C5.70511 29.2528 5.84885 29.6081 6.13736 29.8187C6.42588 30.0293 6.8093 30.0588 7.12684 29.8948L16 25.3127L24.8731 29.8948C25.1907 30.0588 25.5741 30.0293 25.8627 29.8187C26.1511 29.6081 26.2949 29.2528 26.2336 28.9018L24.5425 19.2198L31.7107 12.3639C31.9701 12.1158 32.0649 11.742 31.9548 11.4008C31.8448 11.0597 31.5491 10.8109 31.193 10.7598L21.2744 9.33619L16.8416 0.517756ZM16 3.03141V23.3192C16.1487 23.3192 16.2974 23.3543 16.4332 23.4244L24.0536 27.3596L22.6022 19.0497C22.5485 18.7425 22.6518 18.4287 22.8775 18.2127L29.0161 12.3417L20.519 11.1221C20.2138 11.0783 19.9496 10.8885 19.8116 10.6139L16 3.03141ZM15.0588 23.6867V4.90372L12.1884 10.6139C12.0504 10.8885 11.7862 11.0783 11.481 11.1221L2.9839 12.3417L9.12246 18.2127C9.34829 18.4287 9.4515 18.7425 9.39785 19.0497L7.94642 27.3596L15.0588 23.6867Z" fill="#C7495C"/>
<path d="M15.0588 23.6867V4.90372L12.1884 10.6139C12.0503 10.8885 11.7861 11.0783 11.481 11.1221L2.98387 12.3417L9.12243 18.2127C9.34826 18.4287 9.45147 18.7425 9.39782 19.0497L7.94639 27.3596L15.0588 23.6867Z" fill="#C7495C"/>
</svg>
