<svg width="34" height="32" viewBox="0 0 34 32" fill="none" xmlns="http://www.w3.org/2000/svg">
<path fill-rule="evenodd" clip-rule="evenodd" d="M17.8942 0.552273C17.7247 0.213771 17.3786 0 17 0C16.6214 0 16.2753 0.213771 16.1058 0.552273L11.3959 9.9586L0.857383 11.4771C0.479074 11.5316 0.164927 11.797 0.0479684 12.1609C-0.0689898 12.5248 0.0317011 12.9235 0.307403 13.1882L7.9236 20.5011L6.1268 30.8286C6.06166 31.203 6.21438 31.582 6.52093 31.8066C6.82748 32.0312 7.23486 32.0627 7.57225 31.8878L17 27.0002L26.4277 31.8878C26.7651 32.0627 27.1725 32.0312 27.4791 31.8066C27.7856 31.582 27.9383 31.203 27.8732 30.8286L26.0764 20.5011L33.6926 13.1882C33.9683 12.9235 34.069 12.5248 33.952 12.1609C33.8351 11.797 33.5209 11.5316 33.1426 11.4771L22.6041 9.9586L17.8942 0.552273ZM17 3.2335V24.8738C17.158 24.8738 17.316 24.9112 17.4603 24.986L25.557 29.1836L24.0148 20.3197C23.9578 19.992 24.0675 19.6573 24.3074 19.4269L30.8296 13.1645L21.8014 11.8636C21.4772 11.8169 21.1965 11.6144 21.0498 11.3215L17 3.2335ZM16 25.2658V5.23063L12.9502 11.3215C12.8035 11.6144 12.5228 11.8169 12.1986 11.8636L3.17037 13.1645L9.6926 19.4269C9.93254 19.6573 10.0422 19.992 9.9852 20.3197L8.44305 29.1836L16 25.2658Z" fill="black"/>
<path d="M16 25.2658V5.23063L12.9502 11.3215C12.8035 11.6144 12.5228 11.8169 12.1986 11.8636L3.17037 13.1645L9.6926 19.4269C9.93254 19.6573 10.0422 19.992 9.9852 20.3197L8.44305 29.1836L16 25.2658Z" fill="black"/>
</svg>
