<svg width="34" height="32" viewBox="0 0 34 32" fill="none" xmlns="http://www.w3.org/2000/svg">
<path fill-rule="evenodd" clip-rule="evenodd" d="M17 0C17.3786 0 17.7247 0.213771 17.8942 0.552273L22.6041 9.9586L33.1426 11.4771C33.5209 11.5316 33.8351 11.797 33.952 12.1609C34.069 12.5248 33.9683 12.9235 33.6926 13.1882L26.0764 20.5011L27.8732 30.8286C27.9383 31.203 27.7856 31.582 27.4791 31.8066C27.1725 32.0312 26.7651 32.0627 26.4277 31.8878L17 27.0002L7.57225 31.8878C7.23486 32.0627 6.82748 32.0312 6.52093 31.8066C6.21438 31.582 6.06166 31.203 6.1268 30.8286L7.9236 20.5011L0.307403 13.1882C0.0317011 12.9235 -0.0689898 12.5248 0.0479684 12.1609C0.164927 11.797 0.479074 11.5316 0.857383 11.4771L11.3959 9.9586L16.1058 0.552273C16.2753 0.213771 16.6214 0 17 0ZM17.4603 24.986C17.316 24.9112 17.158 24.8738 17 24.8738L8.44305 29.1836L9.9852 20.3197C10.0422 19.992 9.93254 19.6573 9.6926 19.4269L3.17037 13.1645L12.1986 11.8636C12.5228 11.8169 12.8035 11.6144 12.9502 11.3215L17 3.2335L21.0498 11.3215C21.1965 11.6144 21.4772 11.8169 21.8014 11.8636L30.8296 13.1645L24.3074 19.4269C24.0675 19.6573 23.9578 19.992 24.0148 20.3197L25.557 29.1836L17.4603 24.986Z" fill="#ECECEC"/>
</svg>
